<?xml version="1.0" encoding="UTF-8" standalone="no"?>
<!-- Created with Inkscape (http://www.inkscape.org/) -->

<svg
   width="400"
   height="100"
   viewBox="0 0 105.83333 26.458333"
   version="1.1"
   id="svg1"
   inkscape:export-filename="button.png"
   inkscape:export-xdpi="96"
   inkscape:export-ydpi="96"
   inkscape:version="1.3.2 (091e20ef0f, 2023-11-25)"
   sodipodi:docname="button.svg"
   xmlns:inkscape="http://www.inkscape.org/namespaces/inkscape"
   xmlns:sodipodi="http://sodipodi.sourceforge.net/DTD/sodipodi-0.dtd"
   xmlns="http://www.w3.org/2000/svg"
   xmlns:svg="http://www.w3.org/2000/svg">
  <sodipodi:namedview
     id="namedview1"
     pagecolor="#ffffff"
     bordercolor="#000000"
     borderopacity="0.25"
     inkscape:showpageshadow="2"
     inkscape:pageopacity="0.0"
     inkscape:pagecheckerboard="0"
     inkscape:deskcolor="#d1d1d1"
     inkscape:document-units="px"
     showguides="true"
     inkscape:zoom="1.9046875"
     inkscape:cx="178.76948"
     inkscape:cy="85.315833"
     inkscape:window-width="1894"
     inkscape:window-height="1011"
     inkscape:window-x="0"
     inkscape:window-y="0"
     inkscape:window-maximized="1"
     inkscape:current-layer="layer1">
    <sodipodi:guide
       position="10.696199,7.2885219"
       orientation="1,0"
       id="guide1"
       inkscape:locked="false" />
    <sodipodi:guide
       position="95.293407,6.7328752"
       orientation="1,0"
       id="guide2"
       inkscape:locked="false" />
    <sodipodi:guide
       position="5.9373888,21.169786"
       orientation="0,-1"
       id="guide3"
       inkscape:locked="false" />
    <sodipodi:guide
       position="8.7167074,5.2743026"
       orientation="0,-1"
       id="guide4"
       inkscape:locked="false" />
  </sodipodi:namedview>
  <defs
     id="defs1" />
  <g
     inkscape:label="Layer 1"
     inkscape:groupmode="layer"
     id="layer1">
    <path
       style="fill:#fad6aa;stroke:#f3a970;stroke-width:2.64583;stroke-linecap:round;stroke-linejoin:round;fill-opacity:1;stroke-opacity:1"
       d="M 11.435252,4.8472579 C 10.414577,5.8863822 8.9560047,6.5809407 9.9978423,9.0813508 11.03968,11.581761 12.292598,14.275888 11.474864,15.871201 10.65713,17.466515 9.82366,18.78075 10.032028,19.612592 c 0.208367,0.831842 6.389936,3.54062 16.113754,3.123885 9.723817,-0.416735 29.727097,-2.083675 34.86683,-1.458573 5.139732,0.625103 23.059339,1.18075 26.254307,1.041838 3.194968,-0.138912 7.221778,-1.039667 7.985792,-1.803682 0.764016,-0.764014 2.50041,-2.159099 1.041839,-4.722996 -1.458574,-2.563897 -2.222587,-4.028439 -1.736397,-5.556467 0.48619,-1.5280288 1.805853,-3.7506155 1.52803,-5.0008207 C 95.80836,3.9855714 97.336387,3.707748 91.363185,4.6801296 85.389984,5.6525114 70.387521,5.7219672 65.108878,5.0968647 59.830234,4.471762 48.300565,3.9161153 44.827774,4.471762 41.354983,5.027409 35.798516,5.9997905 33.020283,5.860879 30.242049,5.7219672 16.767616,4.8884972 15.656322,4.8884972 c -1.111293,0 -4.22107,-0.041239 -4.22107,-0.041239 z"
       id="path4" />
  </g>
</svg>
