<?xml version="1.0" encoding="UTF-8" standalone="no"?>
<!-- Created with Inkscape (http://www.inkscape.org/) -->

<svg
   width="1100"
   height="700"
   viewBox="0 0 291.04166 185.20833"
   version="1.1"
   id="svg1"
   inkscape:export-filename="dialogueBackground.png"
   inkscape:export-xdpi="96"
   inkscape:export-ydpi="96"
   inkscape:version="1.3.2 (091e20ef0f, 2023-11-25)"
   sodipodi:docname="dialogue window.svg"
   xmlns:inkscape="http://www.inkscape.org/namespaces/inkscape"
   xmlns:sodipodi="http://sodipodi.sourceforge.net/DTD/sodipodi-0.dtd"
   xmlns="http://www.w3.org/2000/svg"
   xmlns:svg="http://www.w3.org/2000/svg">
  <sodipodi:namedview
     id="namedview1"
     pagecolor="#ffffff"
     bordercolor="#000000"
     borderopacity="0.25"
     inkscape:showpageshadow="2"
     inkscape:pageopacity="0.0"
     inkscape:pagecheckerboard="0"
     inkscape:deskcolor="#d1d1d1"
     inkscape:document-units="px"
     showguides="true"
     inkscape:zoom="0.7786055"
     inkscape:cx="562.54419"
     inkscape:cy="339.7099"
     inkscape:window-width="939"
     inkscape:window-height="1011"
     inkscape:window-x="0"
     inkscape:window-y="0"
     inkscape:window-maximized="1"
     inkscape:current-layer="layer1">
    <sodipodi:guide
       position="13.219011,134.44353"
       orientation="1,0"
       id="guide1"
       inkscape:locked="false" />
    <sodipodi:guide
       position="277.63043,155.13453"
       orientation="1,0"
       id="guide2"
       inkscape:locked="false" />
    <sodipodi:guide
       position="126.87516,171.68534"
       orientation="0,-1"
       id="guide3"
       inkscape:locked="false" />
    <sodipodi:guide
       position="108.4016,12.751239"
       orientation="0,-1"
       id="guide4"
       inkscape:locked="false" />
  </sodipodi:namedview>
  <defs
     id="defs1" />
  <g
     inkscape:label="Layer 1"
     inkscape:groupmode="layer"
     id="layer1">
    <path
       style="fill:#fef5e0;fill-opacity:1;stroke:#ffbf6e;stroke-width:2.64583;stroke-linecap:round;stroke-linejoin:round;stroke-opacity:1"
       d="m 11.648022,22.856671 c 0,3.037113 0.0146,29.629116 0.0146,33.027284 0,3.398171 2.548627,21.413776 2.718536,25.146455 0.169908,3.732675 -3.737987,10.529014 -4.5875289,23.44206 -0.8495422,12.91304 3.9078949,41.79748 4.0778029,46.2151 0.169909,4.41762 -2.034919,19.19302 -2.034919,19.19302 0,0 2.893753,5.93219 4.586201,6.26803 1.692448,0.33583 4.08444,0.16592 11.886954,0.33583 7.802515,0.16991 5.423797,1.01946 19.356292,-1.86899 13.932493,-2.88844 32.112699,2.20881 45.365558,2.88845 13.252862,0.67963 76.288902,-1.69909 89.541762,-3.9079 13.25286,-2.20881 13.25286,-5.26716 29.73398,0 16.48113,5.26716 35.85202,3.91321 41.6289,1.36458 4.8913,-6.37979 21.02752,3.04078 24.46549,-3.77118 1.52519,-4.41364 4.98046,-5.59899 3.11147,-17.66251 -1.86899,-12.0635 -6.34902,-8.47153 -5.49947,-20.70494 0.84955,-12.23341 4.07781,-23.10755 3.90789,-32.962242 -0.16991,-9.854692 -0.84955,-19.709381 -2.20882,-28.204805 -1.35927,-8.495425 -0.3398,-13.25286 1.01947,-22.937642 1.35927,-9.684785 2.20879,-12.40332 1.35927,-17.840388 -0.84955,-5.437073 -1.6991,-10.534326 -2.20882,-12.913045 -0.50972,-2.378719 1.02211,-3.395514 -6.45388,-5.604325 -7.47596,-2.20881 -8.49541,-3.9078944 -28.88443,-1.868993 -20.38901,2.038902 -26.33581,4.757437 -40.0984,2.548627 -13.76258,-2.20881 -24.46416,-4.4176198 -30.24105,-3.7379859 -5.77688,0.6796338 -6.45652,1.0194509 -21.74828,1.8689929 -15.29176,0.849543 -20.38901,0.679634 -26.1659,0.509725 -5.77689,-0.169908 -11.21396,-2.718535 -32.282614,-1.189359 -21.068648,1.529177 -27.355262,-0.169908 -42.1373,0 -14.782035,0.169909 -31.236608,2.20881 -31.236608,2.20881 0,0 -5.29902,2.676059 -6.986158,10.157341 z"
       id="path4"
       sodipodi:nodetypes="ssssscssssssssssssssssssssssscss" />
  </g>
</svg>
