<?xml version="1.0" encoding="UTF-8" standalone="no"?>
<!-- Created with Inkscape (http://www.inkscape.org/) -->

<svg
   width="600"
   height="100"
   viewBox="0 0 158.74999 26.458334"
   version="1.1"
   id="svg1"
   inkscape:version="1.3.2 (091e20ef0f, 2023-11-25)"
   sodipodi:docname="input.svg"
   xmlns:inkscape="http://www.inkscape.org/namespaces/inkscape"
   xmlns:sodipodi="http://sodipodi.sourceforge.net/DTD/sodipodi-0.dtd"
   xmlns="http://www.w3.org/2000/svg"
   xmlns:svg="http://www.w3.org/2000/svg">
  <sodipodi:namedview
     id="namedview1"
     pagecolor="#ffffff"
     bordercolor="#000000"
     borderopacity="0.25"
     inkscape:showpageshadow="2"
     inkscape:pageopacity="0.0"
     inkscape:pagecheckerboard="0"
     inkscape:deskcolor="#d1d1d1"
     inkscape:document-units="px"
     inkscape:zoom="1.4363095"
     inkscape:cx="295.54911"
     inkscape:cy="145.85993"
     inkscape:window-width="1894"
     inkscape:window-height="1011"
     inkscape:window-x="0"
     inkscape:window-y="0"
     inkscape:window-maximized="1"
     inkscape:current-layer="layer1" />
  <defs
     id="defs1" />
  <g
     inkscape:label="Layer 1"
     inkscape:groupmode="layer"
     id="layer1">
    <path
       style="fill:#fad6aa;stroke:#f3a970;stroke-width:2.64583;stroke-linecap:round;stroke-linejoin:round"
       d="M 12.21546,2.4400699 C 7.5231289,3.8266859 3.5726767,2.8667763 2.92794,7.2871092 2.2832031,11.707442 1.2671669,15.660053 1.8197985,18.975843 c 0.5526316,3.315789 2.3011924,6.077508 3.9590872,6.261718 1.6578947,0.184211 7.0000003,-0.460526 10.8684213,-1.289473 3.868421,-0.828948 6.171052,-1.105263 13.078948,-0.184211 6.907895,0.921053 7.36842,1.473684 15.289471,0.828947 7.921054,-0.644736 20.631581,-2.671052 31.868422,-1.197368 11.236841,1.473684 20.263157,1.657895 35.368422,1.473684 15.10526,-0.18421 22.32377,0.487314 35.02159,-0.884354 1.56444,-0.168998 6.98201,2.477486 7.90522,-0.123767 0.92321,-2.601254 3.01932,-4.34118 0.0719,-8.393811 -2.94737,-4.052632 0.9189,-7.6440174 0.18277,-9.2083676 C 154.69798,4.6944901 155.5269,2.6681742 150.46114,2.207648 145.39535,1.7471217 132.86112,1.5629112 125.21639,2.2997533 117.57165,3.0365954 108.28632,4.1818542 99.340562,2.5480057 90.420742,0.91889389 81.103002,2.4091283 68.853,2.1328125 56.603001,1.8564967 53.934828,2.2997533 42.882195,1.8392269 31.829565,1.3787006 14.432483,1.7849244 12.21546,2.4400699 Z"
       id="path1"
       sodipodi:nodetypes="sssssssssssssssssss" />
  </g>
</svg>
