<?xml version="1.0" encoding="UTF-8" standalone="no"?>
<!-- Created with Inkscape (http://www.inkscape.org/) -->

<svg
   width="800"
   height="450"
   viewBox="0 0 211.66666 119.0625"
   version="1.1"
   id="svg1"
   inkscape:version="1.3.2 (091e20ef0f, 2023-11-25)"
   sodipodi:docname="inventoryInfo.svg"
   inkscape:export-filename="../inventoryInfo.png"
   inkscape:export-xdpi="96"
   inkscape:export-ydpi="96"
   xmlns:inkscape="http://www.inkscape.org/namespaces/inkscape"
   xmlns:sodipodi="http://sodipodi.sourceforge.net/DTD/sodipodi-0.dtd"
   xmlns="http://www.w3.org/2000/svg"
   xmlns:svg="http://www.w3.org/2000/svg">
  <sodipodi:namedview
     id="namedview1"
     pagecolor="#ffffff"
     bordercolor="#000000"
     borderopacity="0.25"
     inkscape:showpageshadow="2"
     inkscape:pageopacity="0.0"
     inkscape:pagecheckerboard="0"
     inkscape:deskcolor="#d1d1d1"
     inkscape:document-units="px"
     inkscape:zoom="1.0156242"
     inkscape:cx="247.13866"
     inkscape:cy="254.52328"
     inkscape:window-width="939"
     inkscape:window-height="1011"
     inkscape:window-x="0"
     inkscape:window-y="0"
     inkscape:window-maximized="1"
     inkscape:current-layer="layer1" />
  <defs
     id="defs1" />
  <g
     inkscape:label="Layer 1"
     inkscape:groupmode="layer"
     id="layer1">
    <path
       style="fill:#fef5e0;stroke:#ffbf6e;stroke-width:2.64583;stroke-linecap:round;stroke-linejoin:round"
       d="m 221.21728,8.3791572 c -6.11392,-3.777439 -9.11592,-7.2943647 -18.22167,-5.7312866 -9.10574,1.5630781 -14.79836,2.3476701 -21.68974,1.4358744 -6.89139,-0.9117954 -8.20514,-2.4687678 -14.69151,-1.4267156 -6.48637,1.0420519 -19.76439,1.9538476 -24.9716,0.7815389 -5.20721,-1.1723085 -9.32046,-1.42061 -12.96459,-1.160097 -3.64413,0.260513 -2.38024,6.9982346 -5.09527,3.8853075 C 120.86787,3.0508516 122.17552,2.9908116 111.90154,3.0976625 101.62756,3.2045137 92.147323,6.4344681 85.380091,4.2313013 78.612856,2.0281346 71.281859,2.1095449 61.642877,4.4541621 52.003894,6.7987792 51.561227,6.3265994 43.745835,5.6753169 35.930445,5.0240342 26.725991,3.5983362 24.641886,3.4680797 22.557782,3.3378232 15.765108,2.9460359 11.098262,4.6373354 6.4314151,6.3286348 5.7831854,6.0538748 3.7000989,12.547365 1.6170125,19.040856 2.4016044,29.140824 3.9484006,33.2032 5.4951965,37.265572 4.7187455,43.782469 3.5413489,47.946608 2.3639521,52.110745 1.9599534,53.794921 2.6244652,61.850473 c 0.6645117,8.055552 2.229625,7.027746 1.3157942,14.82889 -0.9138307,7.801142 -0.1445033,9.233964 -0.1322917,16.135525 0.012211,6.901558 -0.1287301,15.165982 1.1384725,15.840672 2.7336341,1.45545 4.4737388,1.95372 4.9611957,6.83642 0.1000511,1.00218 18.1779061,1.5842 22.4855311,-0.35133 4.307623,-1.93553 14.830925,-0.36126 21.598157,0.43147 6.767232,0.79274 28.872169,-0.50881 31.471195,-1.4145 2.599023,-0.90569 17.941821,-1.55392 26.658831,0.9179 8.71701,2.47182 23.11951,2.34258 25.98515,0.90976 2.86564,-1.43282 5.195,-4.62614 6.75197,-2.67738 1.55697,1.94876 3.18925,5.19296 9.30113,3.63497 6.11188,-1.55799 4.9355,-3.89752 11.83909,-3.76726 6.9036,0.13025 11.71902,1.04205 20.83392,2.0841 9.1149,1.04205 15.239,2.99285 26.30673,1.43282 11.06773,-1.56002 14.19389,11.33537 12.24004,-11.06875 -1.95385,-22.404115 0.13026,-25.009248 0.52103,-50.018498 0.39077,-25.009249 -4.68313,-47.2261248 -4.68313,-47.2261248 z"
       id="path1"
       sodipodi:nodetypes="cssssssssssssssssssssssssssssssssc" />
  </g>
</svg>
