<?xml version="1.0" encoding="UTF-8" standalone="no"?>
<!-- Created with Inkscape (http://www.inkscape.org/) -->

<svg
   width="450"
   height="1080"
   viewBox="0 0 119.0625 285.75"
   version="1.1"
   id="svg1"
   xml:space="preserve"
   inkscape:version="1.3.2 (091e20ef0f, 2023-11-25)"
   sodipodi:docname="inventoryLeft.svg"
   inkscape:export-filename="../inventoryLeft.png"
   inkscape:export-xdpi="96"
   inkscape:export-ydpi="96"
   xmlns:inkscape="http://www.inkscape.org/namespaces/inkscape"
   xmlns:sodipodi="http://sodipodi.sourceforge.net/DTD/sodipodi-0.dtd"
   xmlns="http://www.w3.org/2000/svg"
   xmlns:svg="http://www.w3.org/2000/svg"><sodipodi:namedview
     id="namedview1"
     pagecolor="#ffffff"
     bordercolor="#000000"
     borderopacity="0.25"
     inkscape:showpageshadow="2"
     inkscape:pageopacity="0.0"
     inkscape:pagecheckerboard="0"
     inkscape:deskcolor="#d1d1d1"
     inkscape:document-units="px"
     inkscape:zoom="0.38930275"
     inkscape:cx="131.00344"
     inkscape:cy="633.1833"
     inkscape:window-width="939"
     inkscape:window-height="1011"
     inkscape:window-x="0"
     inkscape:window-y="0"
     inkscape:window-maximized="1"
     inkscape:current-layer="layer1" /><defs
     id="defs1" /><g
     inkscape:label="Layer 1"
     inkscape:groupmode="layer"
     id="layer1"><path
       style="fill:#fef5e0;fill-opacity:1;stroke:#ffbf6e;stroke-width:2.64583;stroke-linecap:round;stroke-linejoin:round;stroke-dasharray:none;stroke-opacity:1"
       d="M 6.7205229,-8.5414468 C 3.512318,7.264923 8.308669,11.09074 9.0295295,24.546804 9.75039,38.002868 7.8299724,56.262791 5.9076777,60.107382 3.9853827,63.951971 3.0242354,79.784622 4.2256696,82.187491 5.4271039,84.59036 6.6285382,97.55834 5.186817,109.09211 3.7450958,120.62588 2.0255431,135.76958 4.407762,139.3645 c 2.3822188,3.59492 4.3720945,1.72143 3.1706602,8.61654 -1.2014343,6.8951 -2.8834423,28.04034 -4.0848766,44.37985 -1.2014343,16.33951 2.1607044,42.81799 1.9091542,46.84655 -0.2515502,4.02856 8.1303312,4.75881 3.559249,7.17669 -4.5710821,2.41789 -3.5733741,5.04393 -3.5910446,8.16763 -0.020115,3.55576 -1.4493477,31.92835 -0.2479138,36.73411 1.2014342,4.80574 25.2357506,32.18342 42.0445686,28.8194 16.808817,-3.36402 31.946889,-4.08488 43.480658,-9.85176 11.533763,-5.76689 24.288673,-10.06289 25.249823,-16.31036 0.96115,-6.24745 -4.33924,-14.43698 -3.61838,-20.44416 0.72086,-6.00715 2.16259,-18.98265 2.40287,-27.63298 0.24029,-8.65032 0.96115,-23.05627 0.24029,-34.59004 -0.72086,-11.53377 -3.59597,-16.54276 -2.04913,-31.17585 1.54685,-14.6331 2.62732,-21.64596 2.62732,-35.58072 0,-13.93476 -2.16258,-17.75119 -2.64315,-30.72668 -0.48058,-12.97549 3.35087,-3.82582 1.90915,-28.335075 C 113.32529,60.948384 112.11634,69.60622 113.80586,44.633284 115.49538,19.660346 117.42518,23.993018 113.34031,3.808922 109.25543,-16.375174 104.46659,-29.58344 73.229297,-25.017992 41.992004,-20.452541 6.7205229,-8.5414468 6.7205229,-8.5414468 Z"
       id="path1"
       sodipodi:nodetypes="cssssssssssssssssssssssssc" /></g></svg>
