<?xml version="1.0" encoding="UTF-8" standalone="no"?>
<!-- Created with Inkscape (http://www.inkscape.org/) -->

<svg
   width="450"
   height="1080"
   viewBox="0 0 119.0625 285.75"
   version="1.1"
   id="svg1"
   inkscape:version="1.3.2 (091e20ef0f, 2023-11-25)"
   sodipodi:docname="inventoryRight.svg"
   inkscape:export-filename="../inventoryRight.png"
   inkscape:export-xdpi="96"
   inkscape:export-ydpi="96"
   xmlns:inkscape="http://www.inkscape.org/namespaces/inkscape"
   xmlns:sodipodi="http://sodipodi.sourceforge.net/DTD/sodipodi-0.dtd"
   xmlns="http://www.w3.org/2000/svg"
   xmlns:svg="http://www.w3.org/2000/svg">
  <sodipodi:namedview
     id="namedview1"
     pagecolor="#ffffff"
     bordercolor="#000000"
     borderopacity="0.25"
     inkscape:showpageshadow="2"
     inkscape:pageopacity="0.0"
     inkscape:pagecheckerboard="0"
     inkscape:deskcolor="#d1d1d1"
     inkscape:document-units="px"
     inkscape:zoom="0.5078121"
     inkscape:cx="15.753859"
     inkscape:cy="597.66201"
     inkscape:window-width="939"
     inkscape:window-height="1011"
     inkscape:window-x="0"
     inkscape:window-y="0"
     inkscape:window-maximized="1"
     inkscape:current-layer="layer1" />
  <defs
     id="defs1" />
  <g
     inkscape:label="Layer 1"
     inkscape:groupmode="layer"
     id="layer1">
    <path
       style="fill:#fef5e0;stroke:#ffbf6e;stroke-width:2.64583;stroke-linecap:round;stroke-linejoin:round"
       d="M 4.77268,-15.003922 C 4.2516538,4.2740418 6.3377934,16.275958 5.8167674,23.541829 5.2957412,30.807699 2.1817966,42.461587 2.7028227,48.182699 3.2238487,53.903808 6.036575,76.309963 4.7604685,84.878398 3.4843616,93.446834 3.7469101,118.49272 4.007423,128.56521 c 0.260513,10.07249 3.9158362,50.11823 2.3425819,56.79794 -1.5732545,6.67972 -1.7930624,32.54582 -1.5427256,38.96502 0.2503369,6.4192 1.5773249,42.65493 0.5149202,51.48797 -1.0624044,8.833 -1.3107061,19.24132 0.512885,27.57365 1.8235914,8.33237 18.7813605,14.32415 30.7405365,15.1057 11.959177,0.78153 20.295592,-0.78155 28.63201,-7.03387 8.336417,-6.25229 20.841041,-6.51282 28.656433,-9.63898 7.815386,-3.12613 22.096796,-6.52502 21.097486,-17.97132 -0.99932,-11.4463 -5.41583,-15.33364 -4.63429,-19.76032 0.78154,-4.42668 3.42534,-5.41378 3.16483,-11.9205 -0.26051,-6.50672 1.81605,-23.64364 0.92197,-35.67807 -0.47919,-6.44994 -6.39071,-10.4653 -4.03184,-19.75015 2.35886,-9.28484 6.26859,-27.59606 4.19263,-34.27781 -2.07597,-6.68175 1.7035,-44.65051 0.4152,-56.61172 -1.28832,-11.961211 -1.54756,-7.280628 -4.88716,-9.680959 -3.65179,-2.624722 4.43758,-6.632554 4.31348,-13.936428 -0.14857,-8.744488 2.52244,-4.506825 -0.60371,-17.532476 -3.12616,-13.025652 -1.28425,-21.160577 -0.76323,-25.831494 0.52103,-4.670917 -0.36329,-7.797073 0.15774,-25.51196 0.52103,-17.714885 -4.42872,-29.433901 -9.11796,-30.736466 -4.689231,-1.302565 -99.3165152,2.373111 -99.3165152,2.373111 z"
       id="path1"
       sodipodi:nodetypes="csssssssssssssssssssssssscc" />
  </g>
</svg>
