<?xml version="1.0" encoding="UTF-8" standalone="no"?>
<!-- Created with Inkscape (http://www.inkscape.org/) -->

<svg
   width="320"
   height="160"
   viewBox="0 0 84.666665 42.333333"
   version="1.1"
   id="svg1"
   xml:space="preserve"
   inkscape:version="1.3.2 (091e20ef0f, 2023-11-25)"
   sodipodi:docname="questListElement.svg"
   xmlns:inkscape="http://www.inkscape.org/namespaces/inkscape"
   xmlns:sodipodi="http://sodipodi.sourceforge.net/DTD/sodipodi-0.dtd"
   xmlns="http://www.w3.org/2000/svg"
   xmlns:svg="http://www.w3.org/2000/svg"><sodipodi:namedview
     id="namedview1"
     pagecolor="#ffffff"
     bordercolor="#000000"
     borderopacity="0.25"
     inkscape:showpageshadow="2"
     inkscape:pageopacity="0.0"
     inkscape:pagecheckerboard="0"
     inkscape:deskcolor="#d1d1d1"
     inkscape:document-units="px"
     inkscape:zoom="1.4363095"
     inkscape:cx="258.64898"
     inkscape:cy="141.68255"
     inkscape:window-width="1894"
     inkscape:window-height="1011"
     inkscape:window-x="0"
     inkscape:window-y="0"
     inkscape:window-maximized="1"
     inkscape:current-layer="layer1" /><defs
     id="defs1" /><g
     inkscape:label="Layer 1"
     inkscape:groupmode="layer"
     id="layer1"><path
       style="fill:#fad6aa;fill-opacity:1;stroke:#f3a970;stroke-width:2.64583;stroke-linecap:round;stroke-linejoin:round;stroke-dasharray:none;stroke-opacity:1"
       d="M 2.1787437,4.8352641 C 3.0254109,3.485888 5.8824044,0.88228433 7.3152261,1.8592082 8.7480475,2.8361319 12.00446,4.5294666 14.218821,3.7479276 16.433182,2.9663884 20.727067,1.9248452 24.243993,1.7945887 27.760919,1.6643322 32.840922,1.9899735 37.139387,1.9248452 41.437853,1.859717 49.122986,1.5340757 51.467604,1.599204 c 2.344618,0.065128 8.20616,0.1302565 11.983598,0.6512825 3.77744,0.521026 5.470774,0.260513 9.769239,-0.1302565 4.298466,-0.3907695 7.163599,-0.3907695 7.619498,0.521026 0.455898,0.9117957 1.367692,3.2564128 1.497949,4.558978 0.130257,1.3025651 -1.497949,2.60513 -1.693334,5.60103 -0.195386,2.9959 2.202658,9.573345 2.072401,13.09027 -0.130257,3.516927 0.216624,10.380965 -0.887372,12.12098 -1.096687,1.728494 -2.238575,2.117099 -3.711803,2.304928 -1.504564,0.191825 -3.658377,0.09667 -7.826583,0.226932 -4.168209,0.130257 -8.075903,0.260514 -12.895395,0.195384 -4.819491,-0.06513 -6.939279,-0.325641 -15.062469,-0.260511 -8.12319,0.06513 -8.383704,-0.06513 -13.724221,-0.06513 -5.340516,0 -10.288228,-0.189787 -13.740026,-0.12466 -3.451797,0.06513 -6.3846042,0.762713 -9.5107605,-0.93062 C 2.2321692,37.665501 2.5807071,35.988958 2.5807071,34.165368 1.8612139,29.730247 3.2883654,26.668566 2.427554,22.113078 1.9065279,19.377691 1.8093443,19.138039 1.9396008,16.142139 2.0698573,13.14624 2.1787437,4.8352641 2.1787437,4.8352641 Z"
       id="path2"
       sodipodi:nodetypes="cssssssssssssssssssssssc" /></g></svg>
