<?xml version="1.0" encoding="UTF-8" standalone="no"?>
<!-- Created with Inkscape (http://www.inkscape.org/) -->

<svg
   width="1300"
   height="900"
   viewBox="0 0 343.95833 238.125"
   version="1.1"
   id="svg1"
   inkscape:export-filename="../../questsPage.png"
   inkscape:export-xdpi="96"
   inkscape:export-ydpi="96"
   inkscape:version="1.3.2 (091e20ef0f, 2023-11-25)"
   sodipodi:docname="quests window.svg"
   xmlns:inkscape="http://www.inkscape.org/namespaces/inkscape"
   xmlns:sodipodi="http://sodipodi.sourceforge.net/DTD/sodipodi-0.dtd"
   xmlns="http://www.w3.org/2000/svg"
   xmlns:svg="http://www.w3.org/2000/svg">
  <sodipodi:namedview
     id="namedview1"
     pagecolor="#ffffff"
     bordercolor="#000000"
     borderopacity="0.25"
     inkscape:showpageshadow="2"
     inkscape:pageopacity="0.0"
     inkscape:pagecheckerboard="0"
     inkscape:deskcolor="#d1d1d1"
     inkscape:document-units="px"
     showguides="true"
     inkscape:zoom="0.55055723"
     inkscape:cx="594.85187"
     inkscape:cy="440.46284"
     inkscape:window-width="1894"
     inkscape:window-height="1011"
     inkscape:window-x="0"
     inkscape:window-y="0"
     inkscape:window-maximized="1"
     inkscape:current-layer="layer1"
     showgrid="false">
    <sodipodi:guide
       position="13.219011,187.3602"
       orientation="1,0"
       id="guide1"
       inkscape:locked="false" />
    <sodipodi:guide
       position="330.74541,106.41474"
       orientation="1,0"
       id="guide2"
       inkscape:locked="false" />
    <sodipodi:guide
       position="126.87516,224.60201"
       orientation="0,-1"
       id="guide3"
       inkscape:locked="false" />
    <sodipodi:guide
       position="56.789358,13.215562"
       orientation="0,-1"
       id="guide4"
       inkscape:locked="false" />
    <sodipodi:guide
       position="119.08028,177.72619"
       orientation="1,0"
       id="guide5"
       inkscape:locked="false" />
  </sodipodi:namedview>
  <defs
     id="defs1">
    <inkscape:path-effect
       effect="spiro"
       id="path-effect13"
       is_visible="true"
       lpeversion="1" />
    <inkscape:path-effect
       effect="simplify"
       id="path-effect12"
       is_visible="true"
       lpeversion="1.3"
       threshold="24.3902"
       steps="1"
       smooth_angles="360"
       helper_size="0"
       simplify_individual_paths="false"
       simplify_just_coalesce="false" />
    <inkscape:path-effect
       effect="spiro"
       id="path-effect10"
       is_visible="true"
       lpeversion="1" />
    <inkscape:path-effect
       effect="simplify"
       id="path-effect9"
       is_visible="true"
       lpeversion="1.3"
       threshold="24.3902"
       steps="1"
       smooth_angles="360"
       helper_size="0"
       simplify_individual_paths="false"
       simplify_just_coalesce="false" />
    <inkscape:path-effect
       effect="spiro"
       id="path-effect7"
       is_visible="true"
       lpeversion="1" />
    <inkscape:path-effect
       effect="powerstroke"
       id="path-effect6"
       is_visible="true"
       lpeversion="1.3"
       scale_width="1"
       interpolator_type="CentripetalCatmullRom"
       interpolator_beta="0.75"
       start_linecap_type="round"
       end_linecap_type="round"
       offset_points="40.311221,5.097254"
       linejoin_type="spiro"
       miter_limit="4"
       not_jump="true"
       sort_points="true"
       message="&lt;b&gt;Ctrl + click&lt;/b&gt; on existing node and move it" />
    <inkscape:path-effect
       effect="simplify"
       id="path-effect5"
       is_visible="true"
       lpeversion="1.3"
       threshold="0.012"
       steps="1"
       smooth_angles="0"
       helper_size="0"
       simplify_individual_paths="false"
       simplify_just_coalesce="false"
       step="1" />
  </defs>
  <g
     inkscape:label="Layer 1"
     inkscape:groupmode="layer"
     id="layer1">
    <path
       style="fill:#fef5e0;stroke:#ffbf6e;stroke-width:2.64583;stroke-linecap:round;stroke-linejoin:round;fill-opacity:1;stroke-opacity:1"
       d="M 82.583588,15.624277 C 62.743029,18.032778 49.763783,17.067876 42.558932,14.668761 35.35408,12.269648 21.186542,9.6377555 18.074077,12.750221 14.961611,15.862687 10.155874,23.071293 8.95444,27.396456 c -1.2014343,4.325164 1.199557,29.313118 1.199557,29.313118 0,0 5.761253,7.929467 5.520966,10.788504 -0.240287,2.85904 -3.604303,7.184202 -4.805737,10.548218 -1.2014345,3.364016 0.72086,20.184096 1.922295,26.431554 1.201434,6.24746 -1.682009,46.61565 -1.682009,46.61565 0,0 5.053534,20.42063 5.774394,30.27239 0.720861,9.85176 -11.0531953,26.91213 -7.4488925,34.12073 3.6043025,7.20861 12.7276945,12.01435 19.9362995,9.85176 7.208605,-2.16258 28.543451,-0.47682 30.700401,0.23841 2.156949,0.71523 25.682535,3.59868 35.294008,1.19581 9.611478,-2.40287 53.712138,-3.36777 65.162788,-0.49372 11.45065,2.87406 16.99654,-7.96701 19.6397,-4.36271 2.64316,3.6043 15.60363,5.53786 15.60363,5.53786 0,0 26.8483,0.72087 49.43526,-3.12373 22.58698,-3.84458 73.68834,4.18373 77.84356,1.21833 16.1668,-11.53751 5.58324,-51.9864 5.02913,-66.90487 -3.71266,-99.957721 0.34919,-30.98684 4.26135,-128.932666 0.24026,-9.611474 3.36399,-19.9438088 -17.30066,-16.339506 -20.66467,3.604303 -35.0819,6.487745 -60.5523,2.162582 C 229.01778,11.209006 202.58622,5.4421219 189.13016,9.2867114 175.67409,13.131301 164.47635,16.81257 145.25341,17.773718 126.03046,18.734865 82.583588,15.624277 82.583588,15.624277 Z"
       id="path1"
       sodipodi:nodetypes="cssscssscssssssscssssssssc" />
    <path
       style="fill:#fef5e0;fill-opacity:1;stroke:#ffbf6e;stroke-width:2.64583;stroke-linecap:round;stroke-linejoin:round;stroke-opacity:1"
       d="m 16.900582,67.839936 c 7.557134,-0.17485 15.114745,-0.329086 22.672721,-0.462705 3.560612,-0.06295 7.127405,-0.121694 10.667295,-0.510413 2.623899,-0.288134 5.27343,-0.757265 7.885354,-0.37553 1.834213,0.268072 3.578509,0.946954 5.324998,1.568224 1.746489,0.62127 3.543226,1.194904 5.396425,1.237945 1.709408,0.0397 3.391712,-0.373406 5.076547,-0.664923 2.331939,-0.403482 4.73057,-0.584166 6.937451,-1.438807 0.930741,-0.36044 1.814526,-0.836563 2.754348,-1.172615 0.939822,-0.336052 1.966605,-0.528482 2.937206,-0.295823 1.103672,0.264557 2.004544,1.040417 2.831941,1.817269 0.827396,0.776852 1.661455,1.601504 2.72145,2.007083 0.833369,0.318866 1.756843,0.353222 2.637557,0.209962 0.880713,-0.143259 1.72495,-0.457408 2.540659,-0.819069 1.631417,-0.723323 3.219576,-1.657132 4.991816,-1.866603 1.86845,-0.220843 3.72885,0.389794 5.60722,0.497485 2.56927,0.147302 5.10698,-0.648227 7.68039,-0.669518 0.66275,-0.0055 1.32568,0.04049 1.98799,0.01582 0.66232,-0.02468 1.33252,-0.123298 1.93364,-0.402444 0.5099,-0.236791 0.9604,-0.602406 1.29088,-1.057227 0.33048,-0.454822 0.53946,-0.998264 0.59128,-1.558078 0.0936,-1.011466 -0.31817,-2.00262 -0.82704,-2.88176 -0.50886,-0.879139 -1.12579,-1.702573 -1.50942,-2.643135 -0.63159,-1.548499 -0.57977,-3.297655 -0.26133,-4.939409 0.31843,-1.641754 0.88937,-3.223597 1.27652,-4.850519 0.34806,-1.46264 0.54659,-2.95875 0.63719,-4.4595 0.19398,-3.213132 -0.10835,-6.456594 -0.90351,-9.575819 -0.4296,-1.68521 -1.00196,-3.334641 -1.34657,-5.039262 -0.3446,-1.704622 -0.45358,-3.497909 0.043,-5.16462 0.40393,-1.35583 1.19402,-2.582406 1.5029,-3.962997 0.0821,-0.367169 0.12926,-0.742166 0.14051,-1.118244"
       id="path9"
       inkscape:path-effect="#path-effect9;#path-effect10"
       inkscape:original-d="m 16.900582,67.839936 c 9.762806,-2.633443 19.525362,0.201353 29.331778,-0.499105 2.459156,-0.175654 9.540798,-1.43774 11.893592,-0.849543 4.135937,1.033984 7.480101,3.736954 12.23341,2.548628 2.618211,-0.654552 5.55517,-0.199435 8.155606,-0.849542 2.432894,-0.608224 5.113168,-3.223951 7.814461,-2.548628 1.112351,0.278087 3.529621,3.346079 5.776889,3.907895 3.08207,-1.395766 6.771542,-1.054837 9.854692,-2.37872 0.68091,-0.340458 2.76012,0.0104 3.39817,0.16991 1.80736,0.45184 8.82966,0.263692 10.36441,-0.509725 0.71899,-0.362323 2.07406,0.161483 2.87517,0 0.94994,-0.191484 1.92814,-0.915323 2.54066,-1.52785 1.21151,-1.211498 -1.78434,-5.608193 -2.0389,-6.626431 -0.78865,-3.154624 0.0419,-8.409342 1.35927,-11.044049 0.25017,-0.500328 0.0259,-1.632591 0.16991,-2.208811 0.29327,-1.173075 -0.57569,-9.231005 -0.84954,-10.874142 -1.52342,-4.551014 -2.5517,-7.718323 -0.50973,-12.573225 0.48654,-0.973069 0.84954,-1.535997 0.84954,-2.711898"
       sodipodi:nodetypes="cssssssssssssscssc" />
    <path
       style="fill:#fef5e0;fill-opacity:1;stroke:#ffbf6e;stroke-width:2.64583;stroke-linecap:round;stroke-linejoin:round;stroke-opacity:1"
       d="m 121.31962,64.35084 c 1.23313,3.730377 1.08333,7.90076 -0.41426,11.533051 -1.19991,2.91029 -3.22342,5.472891 -4.05076,8.510174 -0.54537,2.002138 -0.54062,4.109755 -0.457,6.183156 0.14703,3.645695 0.53334,7.315497 1.67702,10.780279 0.63418,1.92126 1.49553,3.76188 2.1201,5.68629 0.50121,1.5443 0.84998,3.16123 0.76369,4.78252 -0.14918,2.80314 -1.5648,5.35349 -2.7472,7.89942 -1.61782,3.48346 -2.85915,7.19305 -3.11391,11.0254 -0.25476,3.83236 0.53627,7.80972 2.69701,10.9851 0.97238,1.42899 2.20156,2.67467 3.11478,4.14218 0.45661,0.73375 0.83309,1.525 1.03152,2.36614 0.19842,0.84114 0.21306,1.73573 -0.0393,2.56228 -0.25824,0.84569 -0.7801,1.58401 -1.32745,2.27847 -0.54736,0.69445 -1.13286,1.36805 -1.55107,2.14713 -0.49658,0.92506 -0.73904,1.96792 -0.85505,3.01142 -0.116,1.04349 -0.11052,2.09605 -0.14033,3.14554 -0.0503,1.77208 -0.2018,3.54171 -0.46761,5.29446 -0.59646,3.93298 -1.76898,7.79349 -1.89746,11.76937 -0.11605,3.59102 0.62401,7.14649 1.03918,10.71532 0.30344,2.60833 0.43396,5.23573 0.78965,7.83745 0.41425,3.03014 1.13291,6.01792 1.40937,9.06372 0.2648,2.9174 0.12092,5.85441 0.16024,8.78353 0.0242,1.79915 0.1175,3.59669 0.23072,5.39243 0.0867,1.37451 0.18498,2.74827 0.29493,4.12111"
       id="path12"
       inkscape:path-effect="#path-effect12;#path-effect13"
       inkscape:original-d="m 121.31962,64.35084 c -1.50706,3.074006 0.61207,6.890942 -0.0474,10.188534 -0.74158,3.70787 -3.54301,6.356246 -4.41762,9.854691 0.14466,1.768238 -1.12054,3.692013 -0.67964,5.430433 0.88536,2.642232 0.71786,5.666428 1.18936,8.495424 0.30402,1.824108 0.89139,3.565548 1.35927,5.437068 0.54438,2.17751 2.83518,4.81986 2.54597,7.1335 -1.2824,3.34584 -0.51928,6.51581 -3.05835,8.83524 0.22216,7.1388 -2.10481,14.66307 -0.50973,21.73767 0.9639,2.89169 2.78429,6.39225 4.01884,8.86133 1.31373,2.62747 -3.15311,4.3268 -3.67902,6.43043 -0.41475,1.65899 0.27517,4.32577 -0.16991,6.10608 -0.32781,1.31127 -0.17005,2.71968 -0.33981,4.07781 -0.44466,3.55727 -0.84252,7.10805 -1.69909,10.53432 -0.6359,2.5436 0.26972,5.69611 0.67963,8.15561 0.47404,2.84422 -0.1738,6.78077 0.50973,9.51487 0.62674,2.50697 1.26814,4.89034 1.69908,7.47598 0.16112,0.9667 0.44226,11.92611 0.33982,12.23341 -0.24706,0.74118 -0.7118,2.58987 -0.50972,3.39816 0.37053,1.48215 1.37551,3.12333 1.69908,4.41763 0.23345,0.93378 -0.66371,1.04844 -0.66371,1.69775"
       sodipodi:nodetypes="csssssssssssssssssssc" />
  </g>
</svg>
