<?xml version="1.0" encoding="UTF-8" standalone="no"?>
<!-- Created with Inkscape (http://www.inkscape.org/) -->

<svg
   width="1300"
   height="900"
   viewBox="0 0 343.95833 238.125"
   version="1.1"
   id="svg1"
   xml:space="preserve"
   inkscape:version="1.3.2 (091e20ef0f, 2023-11-25)"
   sodipodi:docname="shopPage.svg"
   xmlns:inkscape="http://www.inkscape.org/namespaces/inkscape"
   xmlns:sodipodi="http://sodipodi.sourceforge.net/DTD/sodipodi-0.dtd"
   xmlns="http://www.w3.org/2000/svg"
   xmlns:svg="http://www.w3.org/2000/svg"><sodipodi:namedview
     id="namedview1"
     pagecolor="#ffffff"
     bordercolor="#000000"
     borderopacity="0.25"
     inkscape:showpageshadow="2"
     inkscape:pageopacity="0.0"
     inkscape:pagecheckerboard="0"
     inkscape:deskcolor="#d1d1d1"
     inkscape:document-units="px"
     showguides="true"
     inkscape:zoom="0.70710678"
     inkscape:cx="614.47579"
     inkscape:cy="465.98337"
     inkscape:window-width="1894"
     inkscape:window-height="1011"
     inkscape:window-x="0"
     inkscape:window-y="0"
     inkscape:window-maximized="1"
     inkscape:current-layer="layer1"><sodipodi:guide
       position="13.167906,124.54119"
       orientation="1,0"
       id="guide1"
       inkscape:locked="false" /><sodipodi:guide
       position="330.72875,84.668895"
       orientation="1,0"
       id="guide2"
       inkscape:locked="false" /><sodipodi:guide
       position="24.695704,224.74816"
       orientation="0,-1"
       id="guide3"
       inkscape:locked="false" /><sodipodi:guide
       position="23.573172,13.057332"
       orientation="0,-1"
       id="guide4"
       inkscape:locked="false" /></sodipodi:namedview><defs
     id="defs1" /><g
     inkscape:label="Layer 1"
     inkscape:groupmode="layer"
     id="layer1"><path
       style="fill:#fef5e0;fill-opacity:1;stroke:#ffbf6e;stroke-width:2.64583;stroke-linecap:round;stroke-linejoin:round;stroke-opacity:1"
       d="M 109.19505,10.308809 C 102.39925,9.2364715 98.905173,3.3836054 88.802384,7.1253786 78.699597,10.867152 70.089132,15.727072 64.480858,14.234748 58.872583,12.742424 49.90402,11.058626 41.297942,10.123182 32.691864,9.187739 17.727692,10.669832 15.856806,14.037428 13.985919,17.405024 3.9211333,27.124864 6.5403747,43.962844 c 2.6192414,16.83798 5.0513943,49.391408 4.4901283,52.010651 -0.561266,2.61924 -3.9288624,23.011905 -1.6837985,31.430895 2.2450645,8.41899 3.7417735,26.94077 3.5546845,34.79849 -0.187088,7.85773 -1.683798,16.83798 -2.619241,24.32153 -0.9354435,7.48355 -3.1805074,25.81823 -3.3675961,32.17925 -0.1870885,6.36101 0.5554197,15.15418 5.4197251,14.40582 4.864305,-0.74835 9.326662,-8.60607 22.419945,-4.8643 13.093284,3.74177 29.555625,5.61266 35.916639,3.55469 6.361015,-2.05798 23.011905,-3.18051 32.927599,-2.24507 9.9157,0.93544 28.06184,6.17393 32.17779,0.56127 4.11595,-5.61266 6.53349,-7.30961 9.52691,-1.50987 2.99341,5.79975 12.30254,2.42777 17.9152,2.80195 5.61266,0.37418 75.5809,-0.93544 85.30951,-2.61924 9.72861,-1.6838 51.25936,5.83921 57.05035,1.34908 5.79096,-4.49013 17.39633,4.10572 22.24162,1.30378 4.84531,-2.80195 9.33542,-7.29208 5.78075,-18.5174 -3.55468,-11.22532 -5.79975,-35.16243 -3.55468,-38.53003 2.24507,-3.3676 11.97367,-10.10279 5.79975,-25.06988 -6.17392,-14.96709 -7.85773,-38.16609 -7.29647,-44.52711 0.56129,-6.36101 7.67064,-25.444054 7.29647,-34.424308 -0.37418,-8.980258 -0.74835,-14.592917 -2.61925,-24.695706 -1.87089,-10.102786 6.18562,-15.155643 3.1922,-26.193874 C 329.30155,-1.3032084 283.03438,10.913421 258.97852,11.820135 243.45016,12.194312 218.75446,6.5816522 205.28408,5.0849429 191.81369,3.5882337 142.80085,19.116593 131.57553,13.87811 120.35021,8.6396276 116.65716,11.486288 109.19505,10.308809 Z"
       id="path4"
       sodipodi:nodetypes="assssssssssssssssssssssssssssssa" /><path
       style="fill:#fef5e0;fill-opacity:1;stroke:#ffbf6e;stroke-width:2.64583;stroke-linecap:round;stroke-linejoin:round;stroke-opacity:1"
       d="m 7.0728286,219.25038 c 5.0572404,-4.76638 3.9186304,-6.45018 12.5247094,-5.51473 8.606079,0.93544 20.190958,0.43702 24.305449,-1.24677 4.114487,-1.6838 14.591453,3.55468 17.210695,7.67063 2.61924,4.11595 14.592917,-3.74177 19.831399,-7.10937 5.238483,-3.36759 8.989026,-2.80633 18.328841,-1.12253 9.339818,1.6838 22.243088,11.06016 27.294478,-1.66188 5.0514,-12.72202 6.87259,-16.85113 21.09133,-15.16732 14.21874,1.68379 38.95391,3.08988 42.68984,1.59316 3.73592,-1.4967 16.58657,-5.47672 21.45088,0.13594 4.8643,5.61266 0.74835,16.4638 11.78658,18.33469 11.03824,1.87088 12.16077,0 27.87622,0.74835 15.71543,0.74836 20.96125,1.67649 28.06184,-0.74835 7.1006,-2.42485 9.71839,-6.54226 22.25331,-0.74251 12.53495,5.79975 30.46622,-3.88063 32.14418,1.49817"
       id="path5"
       sodipodi:nodetypes="csssssssssssssc" /><path
       style="fill:#ffe5c7;fill-opacity:1;stroke:#ffbf6e;stroke-width:3.00000002;stroke-linecap:round;stroke-linejoin:round;stroke-opacity:1;stroke-dasharray:none"
       d="m 41.304218,873.88792 c -4.330914,-3.03349 -7.348252,-12.41296 -8.746043,-27.18728 l -1.280553,-13.53516 7.185099,-8.29387 c 11.322252,-13.06945 11.507136,-13.11888 41.031145,-10.97003 28.679594,2.08739 58.031174,1.12481 75.362514,-2.47151 6.22254,-1.2912 15.76849,-2.36943 21.21321,-2.39606 8.99046,-0.044 11.17274,0.57221 23.76538,6.71051 10.31585,5.02847 15.92801,8.85283 21.92031,14.93738 4.42993,4.49814 9.44448,8.92181 11.14343,9.83036 10.21785,5.46422 33.346,-3.26878 70.10676,-26.47176 16.45537,-10.38644 26.86455,-13.58114 39.74112,-12.19702 21.06483,2.26428 37.10829,5.8168 58.56085,12.9672 37.03116,12.34294 53.03078,13.12166 66.66554,3.24469 7.68004,-5.5634 11.35679,-11.46414 20.49006,-32.8843 18.22507,-42.74295 25.98729,-46.93863 76.51528,-41.35848 36.67753,4.05055 82.74245,6.82189 115.96551,6.97668 33.45818,0.15588 34.1021,0.10321 45.25483,-3.70187 15.70733,-5.35901 30.20494,-8.16221 42.16532,-8.15293 23.57378,0.0183 31.4508,6.93438 37.03732,32.51902 5.54646,25.40127 10.62149,34.76204 22.67685,41.82696 11.27492,6.60754 25.26698,8.2396 67.82614,7.91139 21.00107,-0.16195 57.69847,0.72581 81.54976,1.97282 57.93365,3.0289 67.01805,1.87083 101.59085,-12.95078 10.7038,-4.5888 24.9182,-6.00263 34.9509,-3.47638 3.637,0.9158 13.6596,4.45225 22.2726,7.85877 26.1284,10.33406 39.1309,10.96098 85.3071,4.1131 28.4666,-4.22156 31.6309,-4.26035 35.0876,-0.43013 2.2031,2.44111 2.678,5.0828 2.606,14.49569 -0.1056,13.79073 -2.7831,19.95159 -12.6061,29.00609 -12.2457,11.28773 -16.2085,11.52698 -46.1724,2.78768 -12.5799,-3.66908 -18.7072,-4.69571 -28.1076,-4.70938 -10.8587,-0.0158 -12.7044,0.39267 -19.0918,4.22516 l -7.0711,4.24264 -34.6482,-0.12121 c -25.8888,-0.0906 -44.4803,-1.06389 -73.5391,-3.84995 -68.26453,-6.54498 -81.64527,-7.13199 -106.24711,-4.66107 -24.82372,2.4932 -65.13693,4.43417 -136.29056,6.56201 -49.35958,1.47609 -204.30417,4.60871 -220.84982,4.46507 -10.45733,-0.0908 -16.79242,-3.00014 -20.04322,-9.20473 -1.29343,-2.46869 -4.97264,-7.19666 -8.17602,-10.50659 -4.6266,-4.78048 -6.82227,-6.01805 -10.67707,-6.01805 -6.53762,0 -14.39236,5.45771 -23.35469,16.22753 -5.93131,7.1275 -8.57271,9.15545 -13.84919,10.63277 -10.28829,2.88054 -37.96956,0.95909 -72.86684,-5.05792 -29.73384,-5.12673 -31.21794,-5.243 -67.17514,-5.26283 -40.69574,-0.0224 -63.28054,2.0685 -90.22512,8.35319 -14.71226,3.43157 -17.50345,3.64116 -39.17542,2.94169 -26.63353,-0.8596 -52.26748,-4.81927 -89.77005,-13.86678 -21.62742,-5.21762 -25.36772,-5.73649 -36.80207,-5.10532 -14.650523,0.80869 -22.967842,3.57526 -39.597977,13.17135 -14.228223,8.21011 -17.996337,9.40556 -21.628285,6.86164 z"
       id="path6"
       transform="scale(0.26458333)" /></g></svg>
