<?xml version="1.0" encoding="UTF-8" standalone="no"?>
<!-- Created with Inkscape (http://www.inkscape.org/) -->

<svg
   width="50"
   height="1000"
   viewBox="0 0 13.229166 264.58333"
   version="1.1"
   id="svg1"
   inkscape:version="1.3.2 (091e20ef0f, 2023-11-25)"
   sodipodi:docname="slider.svg"
   xmlns:inkscape="http://www.inkscape.org/namespaces/inkscape"
   xmlns:sodipodi="http://sodipodi.sourceforge.net/DTD/sodipodi-0.dtd"
   xmlns="http://www.w3.org/2000/svg"
   xmlns:svg="http://www.w3.org/2000/svg">
  <sodipodi:namedview
     id="namedview1"
     pagecolor="#ffffff"
     bordercolor="#000000"
     borderopacity="0.25"
     inkscape:showpageshadow="2"
     inkscape:pageopacity="0.0"
     inkscape:pagecheckerboard="0"
     inkscape:deskcolor="#d1d1d1"
     inkscape:document-units="mm"
     inkscape:zoom="0.5078121"
     inkscape:cx="-154.58474"
     inkscape:cy="562.21583"
     inkscape:window-width="1894"
     inkscape:window-height="1011"
     inkscape:window-x="0"
     inkscape:window-y="0"
     inkscape:window-maximized="1"
     inkscape:current-layer="layer1" />
  <defs
     id="defs1">
    <inkscape:path-effect
       effect="spiro"
       id="path-effect5"
       is_visible="true"
       lpeversion="1" />
    <inkscape:path-effect
       effect="simplify"
       id="path-effect4"
       is_visible="true"
       lpeversion="1.3"
       threshold="24.3902"
       steps="1"
       smooth_angles="360"
       helper_size="0"
       simplify_individual_paths="false"
       simplify_just_coalesce="false" />
    <inkscape:path-effect
       effect="spiro"
       id="path-effect3"
       is_visible="true"
       lpeversion="1" />
    <inkscape:path-effect
       effect="simplify"
       id="path-effect2"
       is_visible="true"
       lpeversion="1.3"
       threshold="24.3902"
       steps="1"
       smooth_angles="360"
       helper_size="0"
       simplify_individual_paths="false"
       simplify_just_coalesce="false" />
  </defs>
  <g
     inkscape:label="Layer 1"
     inkscape:groupmode="layer"
     id="layer1">
    <path
       style="fill:#fef5e0;stroke:#ffbf6e;stroke-width:5.29167;stroke-linecap:round;stroke-linejoin:round;stroke-dasharray:none"
       d="M 6.6166237,7.4632909 C 6.303697,13.603206 6.2617255,19.756924 6.4908722,25.900536 c 0.09531,2.555352 0.2374955,5.108887 0.4185113,7.6596 0.2770975,3.904612 0.6426287,7.860623 -0.079178,11.707929 -0.8655702,4.613579 -3.2695406,8.91395 -3.502956,13.602217 -0.1419877,2.851895 0.5324902,5.674226 1.2029505,8.449826 0.9030904,3.738651 1.8108382,7.498772 2.0719915,11.336074 0.3813533,5.603483 -0.6245613,11.194085 -1.3267806,16.766458 -0.3897494,3.092808 -0.6869695,6.20253 -0.6992711,9.31977 -0.021554,5.46182 0.8304584,10.88504 1.2484088,16.33089 0.560453,7.30264 0.3397957,14.63986 0.4844212,21.96254 0.06106,3.09158 0.1860445,6.20363 -0.2885771,9.25917 -0.4763188,3.06647 -1.5553728,6.09069 -1.3193987,9.18494 0.2357803,3.09171 1.762076,5.92633 2.4768673,8.9435 0.6976708,2.94491 0.6107036,6.02313 0.2542028,9.02848 -0.3565008,3.00536 -0.9772795,5.97447 -1.3394791,8.97915 -0.9728504,8.0704 -0.066851,16.23299 0.7028054,24.3253 0.3242298,3.40901 0.6244357,6.8242 0.6713933,10.24827 0.049235,3.59012 -0.179999,7.1856 0.046162,10.76893 0.277638,4.39894 1.2370554,8.84373 0.3903438,13.16933 -0.2600095,1.32832 -0.6867361,2.61748 -1.0225706,3.92868 -0.3358345,1.31119 -0.5820165,2.66508 -0.4695664,4.01392 0.1084332,1.30066 0.5558805,2.57159 1.2861938,3.65331"
       id="path3"
       inkscape:path-effect="#path-effect4;#path-effect5"
       inkscape:original-d="M 6.6166237,7.4632909 C 4.0672525,13.363561 4.903866,19.283717 6.3703575,25.149683 c 0.4900091,1.960036 -0.4918009,4.288723 0,6.248241 1.1312763,4.507431 1.3478967,4.93827 0.521026,9.899496 -0.3085378,1.851226 0.1932233,3.916342 -0.260513,5.731285 -0.9171596,3.668639 -4.4429706,7.237368 -3.3866693,11.462573 0.5018797,2.007521 0.019444,4.245986 0.521026,6.252313 0.687117,2.748468 1.8915985,5.482291 2.6051303,8.336418 0.7177556,2.871022 0,6.951741 0,9.899493 0,2.564771 0.2548617,5.266772 0,7.815392 -0.3922567,3.922567 -3.0821056,8.51262 -2.0841041,12.504626 1.2559255,5.0237 -0.045017,11.2825 1.0420519,15.63078 1.8989474,7.59579 2.3749958,15.44851 1.0420522,23.44617 -0.2958111,1.77487 0.5615733,3.4039 0.260513,5.21026 -0.7029284,4.21757 -0.7790291,8.32638 -1.8235912,12.50463 -0.6105405,2.44216 1.2650976,5.06039 1.8235912,7.29436 0.8045331,3.21814 1.0829861,8.09081 0.5210259,11.46258 -1.2916537,7.74992 -2.3387407,25.55378 -0.5210259,32.82463 0.7149359,2.85975 -0.9810009,5.9755 -0.260513,8.85745 0.4923475,1.96939 1.8235911,2.89192 1.8235911,5.21026 0,6.64868 -2.197699,13.0923 -0.5210259,19.79899 0.6230334,2.49213 -0.07167,4.99525 0.7815389,7.55488 0.3840107,1.15203 -2.3845917,1.53096 -2.586813,2.33037 -0.4007789,1.58433 1.5856289,2.64257 1.8296969,3.11394"
       transform="matrix(0.85473364,0,0,1.001578,1.6354364,-0.0256699)" />
  </g>
</svg>
