<?xml version="1.0" encoding="UTF-8" standalone="no"?>
<!-- Created with Inkscape (http://www.inkscape.org/) -->

<svg
   width="900"
   height="150"
   viewBox="0 0 238.12499 39.6875"
   version="1.1"
   id="svg1"
   inkscape:version="1.3.2 (091e20ef0f, 2023-11-25)"
   sodipodi:docname="trade.svg"
   xml:space="preserve"
   xmlns:inkscape="http://www.inkscape.org/namespaces/inkscape"
   xmlns:sodipodi="http://sodipodi.sourceforge.net/DTD/sodipodi-0.dtd"
   xmlns="http://www.w3.org/2000/svg"
   xmlns:svg="http://www.w3.org/2000/svg"><sodipodi:namedview
     id="namedview1"
     pagecolor="#ffffff"
     bordercolor="#000000"
     borderopacity="0.25"
     inkscape:showpageshadow="2"
     inkscape:pageopacity="0.0"
     inkscape:pagecheckerboard="0"
     inkscape:deskcolor="#d1d1d1"
     inkscape:document-units="mm"
     inkscape:zoom="1.0156242"
     inkscape:cx="431.75418"
     inkscape:cy="46.769267"
     inkscape:window-width="1894"
     inkscape:window-height="1011"
     inkscape:window-x="0"
     inkscape:window-y="0"
     inkscape:window-maximized="1"
     inkscape:current-layer="layer1" /><defs
     id="defs1" /><g
     inkscape:label="Layer 1"
     inkscape:groupmode="layer"
     id="layer1"><path
       style="fill:#fad6aa;stroke:#f3a970;stroke-width:2.64583;stroke-linecap:round;stroke-linejoin:round;stroke-opacity:1;fill-opacity:1"
       d="m 3.1661184,9.4925985 c 1.095189,-3.2423931 3.1538857,-6.7978 6.101254,-6.4293789 2.9473686,0.368421 40.8789046,-1.3225741 46.3994656,-0.2194695 5.520557,1.1031043 25.105878,1.1031043 28.053246,0.1820516 2.947369,-0.9210526 25.807876,-1.2554098 29.323296,0.4634046 3.70724,1.8126027 25.18431,-0.5540707 26.84221,-0.6461759 1.65789,-0.092105 2.97183,4.4958881 4.51243,2.8336759 1.54061,-1.662212 4.36205,-2.9516858 13.36462,-2.6732112 9.00257,0.2784745 32.28721,-0.2367393 37.99774,0.4079974 5.71053,0.6447369 19.6249,-1.0462582 23.30911,-1.0462582 3.68421,0 13.90142,-1.1808182 14.54615,4.8837378 0.64474,6.0645559 1.92845,12.9710119 1.64566,18.1253079 -0.28279,5.154298 -2.02919,11.32319 -7.50801,11.78156 -5.47882,0.458367 -21.51522,0.61883 -27.4776,-0.667765 -5.96237,-1.286594 -47.22625,-0.191407 -55.01778,0.269841 -7.79153,0.461246 -47.574522,1.557872 -52.602894,0.005 C 87.626644,35.210115 56.037417,38.24743 47.577404,36.405324 39.117392,34.563218 16.091269,39.567035 5.7493832,37.060856 0.87600844,35.879878 2.2593745,12.177085 3.1661184,9.4925985 Z"
       id="path1"
       sodipodi:nodetypes="sssssssssssssssssss" /></g></svg>
